<svg id="Capa_1" enable-background="new 0 0 512 512" height="512" viewBox="0 0 512 512" width="512" xmlns="http://www.w3.org/2000/svg"><g><path d="m286 151c-8.284 0-15 6.716-15 15v120c0 8.284 6.716 15 15 15s15-6.716 15-15v-120c0-8.284-6.716-15-15-15z"/><path d="m346 151c-8.284 0-15 6.716-15 15v60c0 8.284 6.716 15 15 15s15-6.716 15-15v-60c0-8.284-6.716-15-15-15z"/><path d="m226 151c-8.284 0-15 6.716-15 15v45h-30v-45c0-8.284-6.716-15-15-15s-15 6.716-15 15v120c0 8.284 6.716 15 15 15s15-6.716 15-15v-45h30v45c0 8.284 6.716 15 15 15s15-6.716 15-15v-120c0-8.284-6.716-15-15-15z"/><circle cx="346" cy="286" r="15"/><path d="m376 91h-240c-74.991 0-136 60.561-136 135 0 69.41 53.038 126.752 121 134.185v45.815c0 5.532 3.045 10.615 7.922 13.225 4.867 2.604 10.784 2.331 15.398-.744l86.222-57.481h145.458c74.99 0 136-60.561 136-135s-61.01-135-136-135zm0 240h-150c-2.961 0-5.856.877-8.32 2.519l-66.68 44.453v-31.972c0-8.284-6.716-15-15-15-58.449 0-106-47.103-106-105s47.551-105 106-105h240c58.448 0 106 47.103 106 105s-47.552 105-106 105z"/></g></svg>